<?xml version="1.0" encoding="UTF-8"?>
<svg id="Capa_1" xmlns="http://www.w3.org/2000/svg" version="1.1" viewBox="0 0 254.2 161.5">
  <!-- Generator: Adobe Illustrator 29.2.1, SVG Export Plug-In . SVG Version: 2.1.0 Build 116)  -->
  <path d="M30.7,42.3c-10.1,0-18.3,8.3-18.3,18.5s8.2,18.5,18.3,18.5,18.3-8.3,18.3-18.5-8.2-18.5-18.3-18.5ZM43.3,55.5c-1.1,1.1-4.5-.3-6.8-2.8-2.3-2.5-3-5.6-1.9-6.7,1.1-1.1,4.5-.1,6.8,2.4,2.3,2.5,3,6.1,1.9,7.2Z" fill="#784594"/>
  <path d="M85.4,49.9c-4.7-6.5-13.9-9.1-21.2-6.1-7.3,3-12.1,11.4-11,19.3.6,4.7,3,9.8.5,13.9-2.2,3.6-7.1,4.2-11,5.9-4.7,2-8.5,6.2-10,11.2-1.5,5-.8,10.5,2,14.9,2.5,3.9,6.5,6.8,8.2,11.1,1.5,3.8,1.1,8.1.1,12.1-1,4-2.4,7.9-2.9,11.9-.4,3.1,0,6.4,1.6,9,1.6,2.5,4.6,4.1,7.5,4,3,0,5.8-1.8,7.2-4.5,2.5-4.7,0-10.5-2.5-15.2-2.5-4.7-5.3-10.2-3.4-15.2.6-1.6,1.8-3.1,3.2-4.1,1.3-1,3.1-1.1,4.3-2.1,6-3,10.1-9.5,10.1-16.3,0-5.9-2.9-12.9,1.8-17.8,1.8-1.9,4.9-2.6,7.2-3.9,2.8-1.5,5.5-3.4,7.5-5.9,5-6.2,5.3-15.8.6-22.3ZM63.7,95.7c-1.1,1.1-4.5-.3-6.8-2.8-2.3-2.5-3-5.6-1.9-6.7,1.1-1.1,4.5-.1,6.8,2.4,2.3,2.5,3,6.1,1.9,7.2ZM83.4,55.5c-1.1,1.1-4.5-.3-6.8-2.8-2.3-2.5-3-5.6-1.9-6.7,1.1-1.1,4.5-.1,6.8,2.4,2.3,2.5,3,6.1,1.9,7.2Z" fill="#784594"/>
  <path d="M44.6,17s1.8,6.2,5.3,9.8,7.5,9.1,1,20.9c0,0-8.3-3.2-10.6-16.8,0,0,.5,1.7,3,3,0,0-3.4-10.3,1.4-16.8Z" fill="#784594"/>
  <path d="M64.6,20c0-2.5-2-4.5-4.5-4.5s-.3,0-.4,0c-2.6.2-4.2,2.9-3.6,5.4s.3,1.1.4,1.6c2.6,13.2-3.6,24.5-3.6,24.5,12.6-10.7,11.7-27,11.7-27Z" fill="#784594"/>
  <path d="M146.4,82.3c0-6.3-1.9-11.6-7.9-11.6s-7,2.6-8.6,5.5c-.8-4.4-2.9-7.5-7.6-7.5s-7.2,2.8-8.8,5.9v-6.3h-12.4v5.4h4.8v37.1h-4.8v5.4h17.6v-5.4h-4.8v-26.7c0-4.1-.8-10.3,4.7-10.3s3.4,4.7,3.4,7.8v29.3h12.8v-5.4h-4.8v-19.3c0-4.1-.5-12.3,4.7-12.3s3.4,6.7,3.4,9.8v35.6h12.8v-5.4h-4.8v-31.4Z" fill="#784594"/>
  <path d="M167.3,70.7c-6.7,0-12,6.9-12,23.2s4.9,22.5,12,22.5,12.1-6.6,12.1-23.1-5.1-22.6-12.1-22.6ZM167.7,110.9c-3.7,0-5.3-8.9-5.3-19.5s2.7-17.5,5.1-17.5,4.8,4.6,4.8,19.7-2.5,17.3-4.6,17.3Z" fill="#784594"/>
  <path d="M204.5,69.1c-4.2,0-6.9,3.1-8.5,7v-7.7h-12.2v5.5h4.5v37.1h-4.5v5.5h19.9v-5.5h-7.2v-22.4c0-7.9,3.1-14.6,6.9-14.6s1.9.8,2.4,2.1c-3.5.5-5.2,3.8-5.2,6.6,0,4.9,4,5.7,5.3,5.7,3.1,0,7.1-1.9,7.1-9.2s-3.8-9.9-8.6-9.9Z" fill="#784594"/>
  <path d="M238.5,104.4c0,3.5-.4,6.5-1.5,6.5s-1.3-.5-1.3-4v-23.9c0-6.6-2-12.3-8.7-12.3s-9.1,4.5-9.1,11.1,1.9,6.5,4.5,6.5,3.9-1.9,3.9-4.7-1.5-4.6-3.6-5c.5-5.4,2.1-4.8,3.2-4.8,2.2,0,2.4,4,2.4,9.8v9c-.9-.9-2.2-1.6-3.9-1.6-4.8,0-8.2,5.2-8.2,13.5s3,11.7,6.9,11.7,5.1-.8,6.3-4.5c.4,1.9,1.9,4.7,6,4.7s6.3-3,6.3-11.9h-3.3ZM225.8,110.9c-1.5,0-2.8-2.1-2.8-7.7s1.3-8.1,2.8-8.1,2.8,2.4,2.8,8.1-1.3,7.7-2.8,7.7Z" fill="#784594"/>
  <path d="M121.3,136.7l-3.4-.6c-.9-.2-1.3-.5-1.3-1.2s.9-1.5,2.2-1.5,1.8.4,2.1,1.1h3.7c-.5-2.5-2.6-3.9-5.8-3.9s-5.8,2-5.8,4.6,1.4,3.7,3.8,4.2l3.1.6c1.1.2,1.6.7,1.6,1.5s-1,1.7-2.4,1.7-2.6-.9-2.9-2.2h-3.5c.3,3.1,2.7,5.1,6.4,5.1s6-2.1,6-5.1-1.3-3.8-3.8-4.2Z" fill="#784594"/>
  <path d="M138.5,141.8v-4.4h-1.6v-2.9h1.6v-4.1h3.6v4.1h2.4v2.9h-2.4v4.2c0,.9.4,1.3,1.3,1.3s.9,0,1.1-.2v2.9c-.5.2-1.4.3-2.3.3-2.5,0-3.8-1.4-3.8-4.2Z" fill="#784594"/>
  <path d="M156.8,134.5h3.6v6.4c0,1.1.4,2,1.6,2s1.7-.8,1.7-2v-6.5h3.6v11.5h-3.5v-1.9c-.5,1.1-1.5,1.9-3.1,1.9-2.7,0-3.9-1.9-3.9-4.6v-6.9Z" fill="#784594"/>
  <path d="M188.1,146v-1.8c-.6,1.1-1.7,1.8-3.4,1.8-3.1,0-5.3-2.6-5.3-6s2.2-5.8,5.3-5.8,2.7.5,3.3,1.6v-5.3h3.7v15.6h-3.6ZM185.6,137c-1.5,0-2.4,1.5-2.4,3s.9,3,2.4,3,2.4-1.2,2.4-3-.9-3-2.4-3Z" fill="#784594"/>
  <path d="M203.8,130.5h3.6v3.1h-3.6v-3.1ZM203.9,134.2h3.6v11.4h-3.6v-11.4Z" fill="#784594"/>
  <path d="M219.6,140c0-3.4,2.5-5.8,6.1-5.8s6.1,2.4,6.1,5.8-2.5,6-6.1,6-6.1-2.6-6.1-6ZM228.2,140c0-1.5-.8-3-2.5-3s-2.5,1.5-2.5,3,.8,3,2.5,3,2.5-1.5,2.5-3Z" fill="#784594"/>
</svg>