<?xml version="1.0" encoding="UTF-8"?>
<svg id="Capa_1" xmlns="http://www.w3.org/2000/svg" version="1.1" viewBox="0 0 254.2 161.5">
  <!-- Generator: Adobe Illustrator 29.2.1, SVG Export Plug-In . SVG Version: 2.1.0 Build 116)  -->
  <ellipse cx="107.2" cy="55.2" rx="18.3" ry="18.5" fill="#784594"/>
  <path d="M161.9,44.4c-4.7-6.5-13.9-9.1-21.2-6.1-7.3,3-12.1,11.4-11.1,19.3.6,4.7,3,9.8.6,13.9-2.2,3.6-7.1,4.2-11,5.9-4.7,2-8.5,6.2-10,11.2-1.5,4.9-.8,10.6,2,14.9,2.5,3.9,6.4,6.8,8.2,11.1,1.5,3.8,1.1,8.1.1,12.1-1,4-2.4,7.9-2.9,11.9-.4,3.1,0,6.4,1.6,9,1.6,2.5,4.6,4.1,7.5,4s5.8-1.8,7.2-4.5c2.5-4.7,0-10.5-2.5-15.2-2.6-4.7-5.3-10.2-3.4-15.2.6-1.6,1.8-3.1,3.2-4.1,1.3-.9,3.1-1.1,4.3-2.1,6-3,10.1-9.5,10.1-16.3,0-5.9-2.9-12.9,1.8-17.8,1.8-1.9,4.9-2.6,7.2-3.9,2.8-1.5,5.5-3.4,7.5-5.9,5.1-6.2,5.3-15.8.7-22.3Z" fill="#784594"/>
  <path d="M159.9,50c-1.1,1.1-4.5-.3-6.8-2.8s-3-5.6-1.9-6.7,4.5-.1,6.8,2.4c2.3,2.5,3,6.1,1.9,7.2Z" fill="#fff"/>
  <path d="M140.3,90.2c-1.1,1.1-4.5-.3-6.8-2.8-2.3-2.5-3-5.6-1.9-6.7s4.5-.1,6.8,2.4,3,6.1,1.9,7.2Z" fill="#fff"/>
  <path d="M119.9,50c-1.1,1.1-4.5-.3-6.8-2.8s-3-5.6-1.9-6.7,4.5-.1,6.8,2.4,3,6.1,1.9,7.2Z" fill="#fff"/>
  <path d="M121.2,11.4s1.8,6.2,5.3,9.8c3.5,3.6,7.5,9.1,1,20.9,0,0-8.3-3.2-10.6-16.8,0,0,.5,1.7,3,3,0,0-3.4-10.3,1.4-16.8Z" fill="#459352"/>
  <path d="M141.1,14.4c0-2.5-2-4.5-4.5-4.5s-.3,0-.4,0c-2.6.2-4.2,2.9-3.6,5.4s.3,1.1.4,1.6c2.6,13.2-3.6,24.5-3.6,24.5,12.6-10.7,11.7-27,11.7-27Z" fill="#459352"/>
</svg>