<?xml version="1.0" encoding="UTF-8"?>
<svg id="Capa_1" xmlns="http://www.w3.org/2000/svg" version="1.1" viewBox="0 0 254.2 161.5">
  <!-- Generator: Adobe Illustrator 29.2.1, SVG Export Plug-In . SVG Version: 2.1.0 Build 116)  -->
  <g>
    <path d="M126.2,57.5c.2,10.6-16.2,10.6-16.1,0-.2-10.6,16.2-10.6,16.1,0Z" fill="#784594"/>
    <path d="M142.3,52.8c-4.6-6.6-15.5-2.1-14.2,5.8.3,2.1,1.3,4.3.2,6.1-2.7,2.8-8.3,2.7-9.2,7.5-1.7,10.6,8.8,7.5,3.3,22.1-.4,10.1,12.1,5.2,6.1-3-6.5-10.3,6.4-7.6,6.3-16.6,0-2.6-1.3-5.7.8-7.8,5.7-2.2,11.1-8,6.8-14.1Z" fill="#784594"/>
    <path d="M141.4,55.2c-1.2,1.1-5.2-2.9-3.8-4.2,1.4-1.3,5.2,2.9,3.8,4.2Z" fill="#fff"/>
    <path d="M132.7,72.9c-1.2,1.1-5.2-2.9-3.8-4.2,1.4-1.3,5.2,2.9,3.8,4.2Z" fill="#fff"/>
    <path d="M123.8,55.2c-1.2,1.1-5.2-2.9-3.8-4.2,1.4-1.3,5.2,2.9,3.8,4.2Z" fill="#fff"/>
    <path d="M124.3,38.2c.7,4.2,7.2,6.2,2.8,13.5,0,0-3.6-1.4-4.7-7.4,0,0,.2.7,1.3,1.3,0,0-1.5-4.5.6-7.4Z" fill="#459352"/>
    <path d="M133.1,39.6c0-2.8-4.4-2.4-3.7.4,1.6,5.1-1.4,11.9-1.4,11.5,5.5-4.7,5.2-11.9,5.2-11.9Z" fill="#459352"/>
  </g>
  <path d="M121,108.4c.4-2.9-2.9-3.8-4-1.5-.1-2.4-3.3-2.2-3.9-.4v-1.5h-3v1.3h1.1v8.9h-1.1v1.3h4.2v-1.3h-1.1c.4-1.3-1-9.2,1.1-8.9,1.7-.2.5,7.9.8,8.9h3.1v-1.3h-1.1c.3-1.6-1-7.3,1.1-7.6,1.7.1.5,9.7.8,10.9h3.1v-1.3h-1.1v-7.6Z" fill="#459352"/>
  <path d="M126.1,105.6c-3.7-.9-3.9,12,0,11,3.7.9,3.9-11.9,0-11ZM126.2,115.3c-1.7.4-1.6-9.6,0-8.9,1.3-.9,1.6,9.4,0,8.9Z" fill="#459352"/>
  <path d="M135.1,105.2c-1,0-1.7.7-2,1.7v-1.9h-2.9v1.3h1.1v8.9h-1.1v1.3h4.8v-1.3h-1.7c0-1.6-.7-10.8,2.2-8.4-1.9.2-1.3,3.2,0,3,2.3.3,2.2-4.9-.3-4.6Z" fill="#459352"/>
  <path d="M143.3,113.7c0,1.4-.6,2.5-.7.6-.4-2.1,1.4-8.7-2.1-8.7-2.1-.4-3.2,4-1.1,4.2,1.3,0,1.2-2.2,0-2.3.1-1.3.5-1.2.8-1.2.9,0,.5,3.6.6,4.5-4.3-2.7-3.4,9.5.2,4.6.7,2,3.4,1.5,3-1.7h-.8ZM140.2,115.3c-.9.3-.9-4.1,0-3.8.9-.3.9,4.1,0,3.8Z" fill="#459352"/>
  <path d="M115,121.5c-1.8,0-1.1-1.4,0-.5h.9c-.1-1.4-2.9-1.2-2.8.2-.2,1.3,1.7.7,2.1,1.5,0,.6-1.3.5-1.3-.1h-.9c.3,2.7,5.1.1,2.1-1Z" fill="#459352"/>
  <path d="M119.1,122.8v-1.1h-.4v-.7h.4v-1h.9v1h.6v.7h-.6c0,.4-.2,1.7.6,1.3v.7c-.7.2-1.5,0-1.5-.9Z" fill="#459352"/>
  <path d="M123.5,121h.9c-.3,2.8,1.1,2.8.8,0h.9v2.8h-.8v-.5c-1.6,1.7-1.9-1.2-1.7-2.3Z" fill="#459352"/>
  <path d="M131.1,123.8v-.4c-2.6,2.2-2.8-4.1,0-2v-1.3h.9v3.8h-.9ZM130.5,121.6c-.8,0-.8,1.4,0,1.4.8,0,.8-1.5,0-1.4Z" fill="#459352"/>
  <path d="M134.9,120h.9v.8h-.9v-.8ZM134.9,120.9h.9v2.8h-.9v-2.8Z" fill="#459352"/>
  <path d="M138.7,122.3c0-1.8,3.1-1.8,3,0,0,1.9-3,1.9-3,0ZM140.8,122.3c0-.9-1.3-.9-1.2,0,0,.9,1.3.9,1.2,0Z" fill="#459352"/>
</svg>